# xmcd CD database file
#
# Track frame offsets:
#	182
#	17030
#	35775
#	84197
#	107457
#	140825
#	172537
#	211382
#	250867
#	291627
#
# Disc length: 4293 seconds
#
# Revision: 2
# Processed by: cddbd v1.4PL0 Copyright (c) Steve Scherf et al.
# Submitted via: CDex 1.40Release
#
DISCID=8710c30a
DTITLE=Albert King - Live
DYEAR=1989
DGENRE=Blues
TTITLE0=Watermelon Man
TTITLE1=Don't Burn Down The Bridge
TTITLE2=Blues At Sunrise
TTITLE3=That's What The Blues Is All About
TTITLE4=Stormy Monday
TTITLE5=Kansas City
TTITLE6=I'm Gonna Call You As Soon As The Sun Goes Down
TTITLE7=Matchbox Holds My Cloths
TTITLE8=As The Years Go Passing By
TTITLE9=I'll Play The Blues For You
EXTD=YEAR: 1989 ID3G: 0
EXTT0=
EXTT1=
EXTT2=
EXTT3=
EXTT4=
EXTT5=
EXTT6=
EXTT7=
EXTT8=
EXTT9=
PLAYORDER=
